<svg width="74" height="74" fill="none" xmlns="http://www.w3.org/2000/svg"><path d="M57.2 37c0 9.907-2.48 18.781-6.385 25.113C46.891 68.477 41.733 72 36.384 72c-5.35 0-10.508-3.523-14.432-9.887-3.905-6.332-6.385-15.206-6.385-25.113s2.48-18.781 6.385-25.113C25.876 5.523 31.034 2 36.384 2c5.349 0 10.507 3.523 14.431 9.887C54.72 18.219 57.2 27.093 57.2 37Z" stroke="#1C2B59" stroke-width="4"/><path d="M37 57.2c-9.907 0-18.781-2.48-25.113-6.385C5.523 46.89 2 41.733 2 36.383c0-5.349 3.523-10.507 9.887-14.431 6.332-3.905 15.206-6.385 25.113-6.385s18.781 2.48 25.113 6.385C68.477 25.876 72 31.034 72 36.383c0 5.35-3.523 10.507-9.887 14.432C55.781 54.72 46.907 57.2 37 57.2Z" stroke="#1C2B59" stroke-width="4"/><path d="M22.523 39.977v-.118h1.758v.11c0 .588.185 1.044.555 1.367.37.323.87.484 1.5.484.635 0 1.135-.161 1.5-.484.365-.328.547-.836.547-1.523 0-.683-.209-1.196-.625-1.54-.412-.343-.982-.515-1.711-.515h-.945v-1.36h.875c.65 0 1.153-.161 1.507-.484.354-.328.532-.789.532-1.383 0-.578-.151-1.01-.453-1.297-.303-.286-.717-.43-1.243-.43-.552 0-.984.146-1.297.438-.312.287-.468.7-.468 1.242v.094h-1.75v-.094c0-.864.32-1.596.96-2.195.641-.599 1.498-.898 2.57-.898 1.069 0 1.915.284 2.54.851.625.563.938 1.276.938 2.14 0 .558-.144 1.074-.43 1.548-.287.474-.732.836-1.336 1.086v.03c.65.162 1.172.488 1.562.977.396.49.594 1.097.594 1.82 0 1.048-.357 1.873-1.07 2.477-.709.605-1.643.907-2.805.907-1.203 0-2.138-.302-2.805-.907-.666-.604-1-1.385-1-2.343Zm9.04-1.758v-.25c0-1.98.544-3.563 1.632-4.75 1.094-1.193 2.664-1.79 4.711-1.79h.18v1.438h-.18c-1.432 0-2.562.401-3.39 1.203-.828.797-1.243 2.081-1.243 3.852l.055.375c0 1.307.214 2.224.64 2.75.428.52.975.781 1.641.781.672 0 1.185-.213 1.54-.64.354-.428.53-1.04.53-1.836 0-.776-.179-1.378-.538-1.805-.355-.432-.868-.649-1.54-.649a2.29 2.29 0 0 0-1.624.649c-.459.427-.688 1.02-.688 1.781h-.617c0-1.125.3-2.042.898-2.75.6-.708 1.412-1.062 2.438-1.062 1.052 0 1.89.351 2.515 1.054.625.698.938 1.623.938 2.774 0 1.156-.354 2.093-1.063 2.812-.708.714-1.635 1.07-2.78 1.07-1.131 0-2.09-.39-2.876-1.171-.786-.787-1.18-2.065-1.18-3.836Zm9.125 1.078v-3.969c0-1.182.325-2.133.976-2.851.651-.72 1.57-1.079 2.758-1.079 1.177 0 2.094.36 2.75 1.079.656.718.984 1.669.984 2.851v3.969c0 1.182-.33 2.133-.992 2.851-.656.72-1.57 1.079-2.742 1.079-1.188 0-2.107-.36-2.758-1.079-.651-.718-.977-1.669-.977-2.851Zm1.82.133c0 .698.153 1.27.46 1.718.308.443.792.664 1.454.664.661 0 1.146-.22 1.453-.664.307-.448.46-1.02.46-1.718v-4.227c0-.703-.153-1.276-.46-1.719-.307-.448-.792-.672-1.453-.672-.662 0-1.146.224-1.453.672-.308.443-.461 1.016-.461 1.72v4.226Z" fill="#1C2B59"/><circle cx="50.467" cy="28.467" r="1.467" stroke="#1C2B59" stroke-width="2"/></svg>