<svg xmlns="http://www.w3.org/2000/svg" width="74" height="74" fill="none"><path stroke="#1C2B59" stroke-width="4" d="M57.2 37c0 9.907-2.48 18.781-6.385 25.113C46.891 68.477 41.733 72 36.384 72c-5.35 0-10.508-3.523-14.432-9.887-3.905-6.332-6.385-15.206-6.385-25.113s2.48-18.781 6.385-25.113C25.876 5.523 31.034 2 36.384 2s10.507 3.523 14.431 9.887C54.72 18.219 57.2 27.093 57.2 37Z"/><path stroke="#1C2B59" stroke-width="4" d="M37 57.2c-9.907 0-18.781-2.48-25.113-6.385C5.523 46.89 2 41.733 2 36.383s3.523-10.507 9.887-14.431c6.332-3.905 15.206-6.385 25.113-6.385s18.781 2.48 25.113 6.385C68.477 25.876 72 31.034 72 36.383c0 5.35-3.523 10.507-9.887 14.432C55.781 54.72 46.907 57.2 37 57.2Z"/><path fill="#1C2B59" d="M22.523 39.977v-.118h1.758v.11q0 .882.555 1.367.555.484 1.5.484.953 0 1.5-.484.547-.492.547-1.523 0-1.024-.625-1.54-.618-.515-1.711-.515h-.945v-1.36h.875q.976 0 1.507-.484.532-.492.532-1.383 0-.867-.453-1.297-.454-.43-1.243-.43-.828 0-1.297.438-.468.43-.468 1.242v.094h-1.75v-.094q0-1.296.96-2.195.962-.898 2.57-.898 1.603 0 2.54.851.938.844.938 2.14 0 .837-.43 1.548t-1.336 1.086v.03q.976.243 1.562.977.594.735.594 1.82 0 1.572-1.07 2.477-1.063.907-2.805.907-1.804 0-2.805-.907-1-.906-1-2.343m9.04-1.758v-.25q0-2.97 1.632-4.75 1.64-1.79 4.711-1.79h.18v1.438h-.18q-2.148 0-3.39 1.203-1.242 1.196-1.243 3.852l.055.375q0 1.96.64 2.75.642.78 1.641.781 1.008 0 1.54-.64.53-.642.53-1.836 0-1.164-.538-1.805-.532-.648-1.54-.649a2.3 2.3 0 0 0-1.624.649q-.688.64-.688 1.781h-.617q0-1.688.898-2.75.9-1.062 2.438-1.062 1.578 0 2.515 1.054.938 1.047.938 2.774 0 1.734-1.063 2.812-1.062 1.07-2.78 1.07-1.697 0-2.876-1.171-1.18-1.18-1.18-3.836Zm9.125 1.078v-3.969q0-1.774.976-2.851.976-1.08 2.758-1.079 1.766 0 2.75 1.079.984 1.077.984 2.851v3.969q0 1.773-.992 2.851-.984 1.08-2.742 1.079-1.782 0-2.758-1.079-.977-1.078-.977-2.851Zm1.82.133q0 1.047.46 1.718.462.664 1.454.664.992.001 1.453-.664.46-.671.46-1.718v-4.227q0-1.055-.46-1.719-.461-.672-1.453-.672-.993 0-1.453.672-.462.664-.461 1.72z"/><circle cx="50.467" cy="28.467" r="1.467" stroke="#1C2B59" stroke-width="2"/></svg>