<svg id="Layer_2" data-name="Layer 2" xmlns="http://www.w3.org/2000/svg" viewBox="0 0 454.83 113.58"><defs><style>.cls-2{fill:#001536;stroke-width:0}</style></defs><g id="Layer_1-2" data-name="Layer 1"><text transform="translate(133.11 77.83)" style="fill:#001536;font-family:&quot;Roboto&quot;,sans-serif;font-size:64px;font-weight:700"><tspan x="0" y="0">Frezerline</tspan></text><path class="cls-2" d="M98.4 41.41H68.41v8.21H100c-.31-2.81-.85-5.56-1.6-8.21ZM41.79 0h16.42v28.7H41.79zM54.37 86.24l-8.74 7.21v6.93l.18.55 8.56-7.07v-7.62zM31.59 0h7.83v28.7h-7.83zM50 113.58l4.37-14.48-7.2 5.71 2.83 8.77zM50.46 72.89h-4.83v15.76l8.74-7.22v-8.54h-3.92.01zM35.5 31.75h29v6.33h-29zM60.58 0h7.83v28.7h-7.83zM37.22 49.62h4.57v18.95h16.42V49.62h4.57v-8.21H37.22v8.21zM16.9 56.22c0-7.64 2.6-14.69 6.97-20.3v-9.81a39.816 39.816 0 0 0-6.11 6.64c-.54.74-1.57.9-2.31.36a1.65 1.65 0 0 1-.36-2.31c2.51-3.44 5.47-6.44 8.78-8.95v-8.27C9.55 22.38 0 38.19 0 56.22c0 23.8 16.62 43.72 38.89 48.77V87.4C26.09 82.83 16.9 70.57 16.9 56.21ZM9.87 43.99c1.01 0 1.84.82 1.84 1.84s-.82 1.84-1.84 1.84-1.84-.82-1.84-1.84.82-1.84 1.84-1.84ZM8.6 52.28c1.01 0 1.84.82 1.84 1.84s-.82 1.84-1.84 1.84-1.84-.82-1.84-1.84.82-1.84 1.84-1.84ZM7.19 62.49c0-1.01.82-1.84 1.84-1.84s1.84.82 1.84 1.84-.82 1.84-1.84 1.84-1.84-.82-1.84-1.84Zm3.94 9.96c-1.01 0-1.84-.82-1.84-1.84s.82-1.84 1.84-1.84 1.84.82 1.84 1.84-.82 1.84-1.84 1.84Zm3.7 7.53c-1.01 0-1.84-.82-1.84-1.84s.82-1.84 1.84-1.84 1.84.82 1.84 1.84-.82 1.84-1.84 1.84Zm5.13 6.64c-1.01 0-1.84-.82-1.84-1.84s.82-1.84 1.84-1.84 1.84.82 1.84 1.84-.82 1.84-1.84 1.84Zm6.37 5.46c-1.01 0-1.84-.82-1.84-1.84s.82-1.84 1.84-1.84 1.84.82 1.84 1.84-.82 1.84-1.84 1.84Zm56.75-34.3c-.64 13.68-9.62 25.21-21.95 29.62v7.15c13.36-3.82 24.07-14.48 27.59-28.73a1.653 1.653 0 1 1 3.21.79c-2.44 9.87-8.34 18.61-16.62 24.6a43.093 43.093 0 0 1-14.18 6.72v7.05c21.78-4.95 38.16-24.1 38.87-47.21H83.08Zm-6.93-44.21v8.26c1.34 1.02 2.62 2.12 3.84 3.3a43.01 43.01 0 0 1 9.26 13.04h7.41a50.184 50.184 0 0 0-20.52-24.59Zm0 12.61v9.74c.57.72 1.1 1.48 1.6 2.25h7.79a40.193 40.193 0 0 0-9.39-11.99Z"/></g></svg>