<svg width="24" height="24" fill="none" xmlns="http://www.w3.org/2000/svg"><g clip-path="url(#a)"><path d="m22.616 15.554-5.434-2.436-.02-.01a2.301 2.301 0 0 0-2.193.202c-.045.03-.088.063-.13.098L12.267 15.6c-1.5-.814-3.05-2.35-3.865-3.832l2.2-2.615c.035-.042.068-.086.098-.133a2.309 2.309 0 0 0 .182-2.193L8.446 1.384A2.315 2.315 0 0 0 6.05.017 6.954 6.954 0 0 0 0 6.923C0 16.339 7.66 24 17.077 24a6.954 6.954 0 0 0 6.906-6.049 2.314 2.314 0 0 0-1.367-2.397Zm-5.539 5.677A14.325 14.325 0 0 1 2.77 6.923a4.187 4.187 0 0 1 3.287-4.101l2.171 4.846-2.21 2.633a1.382 1.382 0 0 0-.1.134 2.308 2.308 0 0 0-.148 2.266c1.087 2.225 3.327 4.45 5.575 5.539a2.309 2.309 0 0 0 2.272-.167c.044-.03.087-.063.128-.099l2.588-2.2 4.846 2.17a4.187 4.187 0 0 1-4.1 3.287Z" fill="#1C2B59"/></g><defs><clipPath id="a"><path fill="#fff" d="M0 0h24v24H0z"/></clipPath></defs></svg>