<svg xmlns="http://www.w3.org/2000/svg" width="116" height="91" fill="none"><path fill="#1C2B59" d="M14.004 22.858a7.1 7.1 0 0 1 .311-2.853 7 7 0 0 1 1.41-2.48 6.8 6.8 0 0 1 2.264-1.68 6.6 6.6 0 0 1 2.733-.595H31.5a2.22 2.22 0 0 1 1.591.677c.422.434.659 1.022.659 1.636v1.766c0 3.22-2.236 5.467-3.924 6.794-.2.152-.376.336-.518.546l-.053.116-.005.027v.014l.014.047q.023.07.162.245c.347.374.759.678 1.215.897 1.264.648 3.154 1.11 5.359 1.11 2.214 0 4.104-.462 5.355-1.11.457-.218.87-.523 1.22-.897a.9.9 0 0 0 .175-.292v-.041l-.054-.116a2.3 2.3 0 0 0-.517-.546c-1.688-1.327-3.925-3.575-3.925-6.794v-1.767c0-.612.237-1.2.658-1.633a2.22 2.22 0 0 1 1.588-.679h10.778c.941 0 1.872.202 2.733.594a6.8 6.8 0 0 1 2.265 1.681 7 7 0 0 1 1.409 2.48 7.1 7.1 0 0 1 .311 2.853l-1.093 13.204h1.066c.877 0 1.89-.68 3.038-2.22.945-1.267 2.376-2.404 4.243-2.404 2.556 0 4.261 2.067 5.193 3.986C71.447 37.482 72 40.164 72 43s-.553 5.518-1.557 7.576c-.931 1.92-2.637 3.986-5.193 3.986-1.867 0-3.298-1.137-4.243-2.404-1.148-1.54-2.16-2.22-3.038-2.22h-1.066l1.093 13.204a7.1 7.1 0 0 1-.311 2.853 7 7 0 0 1-1.41 2.48 6.8 6.8 0 0 1-2.264 1.68 6.6 6.6 0 0 1-2.733.595H40.5a2.22 2.22 0 0 1-1.591-.677 2.35 2.35 0 0 1-.659-1.635V66.67c0-3.22 2.236-5.467 3.924-6.794.2-.152.376-.336.517-.546l.054-.116.005-.028v-.013a.9.9 0 0 0-.175-.296 4.1 4.1 0 0 0-1.216-.893c-1.264-.648-3.154-1.11-5.359-1.11s-4.104.462-5.355 1.11c-.457.218-.87.523-1.22.897a.9.9 0 0 0-.175.292v.014l.005.027.053.116c.073.125.226.314.518.546 1.688 1.327 3.924 3.575 3.924 6.794v1.766c0 .614-.237 1.202-.659 1.636a2.22 2.22 0 0 1-1.591.677H20.723a6.6 6.6 0 0 1-2.734-.594 6.8 6.8 0 0 1-2.265-1.681 7 7 0 0 1-1.409-2.48 7.1 7.1 0 0 1-.311-2.853l1.098-13.205h-1.071c-.878 0-1.89.68-3.038 2.22-.944 1.268-2.376 2.406-4.243 2.406-2.556 0-4.261-2.068-5.193-3.987C.554 48.518 0 45.836 0 43c0-2.835.553-5.518 1.557-7.576.932-1.92 2.637-3.986 5.193-3.986 1.867 0 3.299 1.137 4.243 2.405 1.148 1.54 2.16 2.22 3.038 2.22h1.071zm6.719-2.983a2.2 2.2 0 0 0-.914.198 2.25 2.25 0 0 0-.757.562 2.3 2.3 0 0 0-.47.83 2.4 2.4 0 0 0-.1.954l.004.032 1.305 15.725a2.36 2.36 0 0 1-.583 1.762 2.25 2.25 0 0 1-.753.554 2.2 2.2 0 0 1-.905.196h-3.519c-3.132 0-5.319-2.3-6.61-4.034a2.3 2.3 0 0 0-.532-.531l-.112-.056-.027-.005h-.013a.9.9 0 0 0-.288.18 4.2 4.2 0 0 0-.869 1.25C4.95 38.792 4.5 40.734 4.5 43s.45 4.218 1.08 5.504c.315.647.63 1.04.873 1.253a.9.9 0 0 0 .284.18h.013l.027-.004.112-.056a2.3 2.3 0 0 0 .531-.532c1.292-1.734 3.479-4.032 6.611-4.032h3.519c.311 0 .62.066.904.195s.541.317.752.552a2.34 2.34 0 0 1 .585 1.759l-1.305 15.762c-.031.322.003.646.101.953s.258.59.468.829c.211.24.468.431.755.562.288.132.598.2.913.2h8.45c-.215-.768-.877-1.628-2.083-2.576-1.233-.971-2.34-2.442-2.34-4.361 0-2.628 2.012-4.38 3.879-5.338 2.002-1.031 4.613-1.6 7.371-1.6s5.368.569 7.371 1.6c1.867.958 3.879 2.71 3.879 5.337 0 1.92-1.107 3.39-2.34 4.362-1.206.948-1.867 1.804-2.083 2.576h8.45a2.2 2.2 0 0 0 .914-.198 2.3 2.3 0 0 0 .757-.562c.21-.24.37-.523.47-.83.097-.307.132-.632.1-.954l-.004-.032-1.305-15.725a2.36 2.36 0 0 1 .583-1.762c.211-.236.467-.425.753-.554a2.2 2.2 0 0 1 .905-.196h3.519c3.132 0 5.319 2.3 6.61 4.034.226.3.41.457.532.531l.112.056.027.005h.013a.9.9 0 0 0 .288-.18c.363-.358.657-.782.869-1.25.63-1.295 1.08-3.237 1.08-5.508s-.45-4.218-1.08-5.504a4.2 4.2 0 0 0-.873-1.253.9.9 0 0 0-.284-.18h-.013l-.027.004-.112.056a2.3 2.3 0 0 0-.532.532c-1.291 1.734-3.478 4.032-6.61 4.032H54.45c-.312 0-.62-.066-.905-.195a2.25 2.25 0 0 1-.753-.554 2.3 2.3 0 0 1-.471-.818 2.4 2.4 0 0 1-.112-.944l1.305-15.757a2.4 2.4 0 0 0-.101-.953 2.3 2.3 0 0 0-.468-.829 2.25 2.25 0 0 0-.755-.562 2.2 2.2 0 0 0-.912-.2h-8.451c.215.768.877 1.628 2.083 2.576 1.233.971 2.34 2.442 2.34 4.361 0 2.627-2.011 4.38-3.879 5.338-2.003 1.031-4.613 1.6-7.371 1.6s-5.369-.569-7.371-1.6c-1.867-.958-3.879-2.71-3.879-5.337 0-1.92 1.107-3.39 2.34-4.362 1.206-.948 1.867-1.804 2.084-2.576z"/><g clip-path="url(#a)"><path fill="#1C2B59" d="M101.323 17.566a5.9 5.9 0 0 1 2.88.39 6.84 6.84 0 0 1 2.501 1.761 8.6 8.6 0 0 1 1.696 2.832c.396 1.077.6 2.24.6 3.418v13.476c0 .747-.246 1.462-.683 1.99-.438.527-1.031.824-1.65.824h-1.783c-3.248 0-5.516-2.797-6.855-4.907a2.6 2.6 0 0 0-.551-.647l-.117-.068-.028-.005h-.014l-.046.017q-.07.028-.248.202c-.377.435-.684.95-.905 1.52-.653 1.58-1.12 3.944-1.12 6.701 0 2.769.467 5.132 1.12 6.696.22.572.527 1.089.905 1.525a.9.9 0 0 0 .294.22h.042l.117-.068q.32-.269.55-.647c1.34-2.11 3.608-4.907 6.856-4.907h1.783c.618 0 1.21.296 1.648.822.437.527.684 1.24.685 1.986v13.476a9.9 9.9 0 0 1-.6 3.418 8.6 8.6 0 0 1-1.696 2.832 6.85 6.85 0 0 1-2.501 1.762 5.9 5.9 0 0 1-2.88.389L88 71.207v1.333c0 1.097.686 2.363 2.24 3.798 1.279 1.182 2.427 2.971 2.427 5.306 0 3.196-2.086 5.329-4.023 6.494-2.077 1.254-4.783 1.947-7.644 1.947s-5.567-.692-7.644-1.947c-1.937-1.165-4.023-3.298-4.023-6.494 0-2.335 1.148-4.124 2.427-5.306 1.554-1.434 2.24-2.7 2.24-3.798v-1.333l-13.323 1.367a5.9 5.9 0 0 1-2.88-.39 6.85 6.85 0 0 1-2.502-1.76A8.6 8.6 0 0 1 53.6 67.59a10 10 0 0 1-.6-3.417V50.697c0-.746.246-1.462.683-1.99.438-.527 1.032-.824 1.65-.824h1.783c3.248 0 5.516 2.797 6.855 4.907.153.251.339.47.551.647l.117.068.028.005h.014a.9.9 0 0 0 .298-.22c.376-.434.681-.949.901-1.518.653-1.581 1.12-3.945 1.12-6.702s-.467-5.132-1.12-6.696a5.2 5.2 0 0 0-.905-1.525.9.9 0 0 0-.294-.22h-.014l-.028.007-.117.067c-.126.09-.317.281-.55.647-1.34 2.11-3.608 4.907-6.856 4.907h-1.783c-.618 0-1.212-.297-1.65-.824-.437-.528-.683-1.243-.683-1.99V25.967c0-1.177.204-2.341.6-3.418a8.6 8.6 0 0 1 1.695-2.832 6.85 6.85 0 0 1 2.502-1.761 5.9 5.9 0 0 1 2.88-.39L74 18.94V17.6c0-1.097-.686-2.363-2.24-3.798-1.279-1.182-2.427-2.971-2.427-5.306 0-3.196 2.086-5.329 4.023-6.493C75.433.748 78.139.056 81 .056s5.567.692 7.644 1.947c1.937 1.164 4.023 3.297 4.023 6.493 0 2.335-1.148 4.124-2.427 5.306-1.554 1.435-2.24 2.7-2.24 3.798v1.34zm3.01 8.401a3.3 3.3 0 0 0-.2-1.142 2.9 2.9 0 0 0-.567-.946 2.3 2.3 0 0 0-.837-.587 1.96 1.96 0 0 0-.962-.127l-.033.006-15.867 1.631a1.97 1.97 0 0 1-.952-.14 2.3 2.3 0 0 1-.826-.59 2.9 2.9 0 0 1-.558-.94A3.3 3.3 0 0 1 83.333 22v-4.4c0-3.916 2.32-6.65 4.07-8.266.208-.184.39-.408.536-.664l.056-.14.005-.034v-.017a1.2 1.2 0 0 0-.182-.36 4.3 4.3 0 0 0-1.26-1.086c-1.311-.788-3.271-1.35-5.558-1.35s-4.256.562-5.553 1.35c-.654.394-1.05.788-1.265 1.091a1.2 1.2 0 0 0-.182.355v.017l.005.034.056.14c.147.256.328.48.536.664 1.75 1.615 4.07 4.35 4.07 8.266V22a3.3 3.3 0 0 1-.198 1.13c-.13.357-.32.677-.557.94a2.3 2.3 0 0 1-.824.591 1.96 1.96 0 0 1-.95.141l-15.905-1.631a1.96 1.96 0 0 0-.961.126c-.31.123-.595.322-.836.585a2.9 2.9 0 0 0-.568.945 3.3 3.3 0 0 0-.201 1.14v10.567c.774-.27 1.642-1.097 2.599-2.605.98-1.542 2.464-2.926 4.4-2.926 2.651 0 4.42 2.515 5.386 4.85 1.04 2.504 1.615 5.768 1.615 9.217s-.574 6.713-1.615 9.217c-.966 2.335-2.735 4.85-5.385 4.85-1.937 0-3.421-1.384-4.401-2.926-.957-1.508-1.82-2.335-2.6-2.605v10.567c0 .394.068.783.2 1.142.133.36.326.682.568.947s.527.463.837.587c.31.122.638.166.962.126l.033-.005 15.867-1.632c.322-.034.646.014.952.14.306.125.587.326.826.59.238.263.428.583.558.94s.198.742.198 1.132v4.4c0 3.916-2.32 6.651-4.07 8.266-.303.281-.462.512-.536.664l-.056.14-.005.034v.017q.062.201.182.36c.36.453.788.822 1.26 1.086 1.307.788 3.267 1.35 5.558 1.35s4.256-.562 5.553-1.35a4.3 4.3 0 0 0 1.265-1.091q.118-.157.182-.355v-.017l-.005-.033-.056-.141a2.7 2.7 0 0 0-.536-.664c-1.75-1.615-4.07-4.35-4.07-8.266v-4.4c0-.39.068-.775.198-1.132s.32-.677.558-.94c.239-.264.52-.465.826-.59.306-.126.63-.174.952-.14l15.9 1.632c.324.039.651-.004.961-.127a2.3 2.3 0 0 0 .836-.585 2.9 2.9 0 0 0 .568-.944 3.3 3.3 0 0 0 .201-1.14V53.605c-.774.27-1.642 1.097-2.599 2.605-.98 1.542-2.464 2.926-4.4 2.926-2.651 0-4.42-2.515-5.386-4.85-1.04-2.504-1.615-5.768-1.615-9.217s.574-6.713 1.615-9.217c.966-2.335 2.735-4.85 5.385-4.85 1.937 0 3.421 1.384 4.401 2.926.957 1.508 1.82 2.335 2.599 2.605z"/></g><defs><clipPath id="a"><path fill="#fff" d="M44 .056h72v90.029H44z"/></clipPath></defs></svg>