<svg width="90" height="76" fill="none" xmlns="http://www.w3.org/2000/svg"><path d="M69.854 29.481 46.371 19.306a2.668 2.668 0 0 0-2.122 0L20.766 29.481c-.052.023-.089.061-.14.09-.074.035-.152.058-.22.101-.057.038-.102.087-.157.127a2.24 2.24 0 0 0-.495.494c-.053.07-.107.134-.154.206a2.806 2.806 0 0 0-.199.42c-.023.068-.06.132-.08.2-.066.224-.1.455-.102.687v25.438c0 1.007.605 1.915 1.55 2.325l23.483 10.175c.34.147.7.218 1.06.218.363-.009.72-.092 1.048-.244l.01.026 23.484-10.175a2.59 2.59 0 0 0 1.13-.939c.274-.412.42-.894.42-1.386V31.806c0-.492-.146-.974-.42-1.387a2.59 2.59 0 0 0-1.13-.938Zm-24.542-5.064 17.059 7.39-17.06 7.389-3.413-1.478-13.643-5.912 17.057-7.39ZM24.437 55.593V35.72l18.265 7.914v19.869l-18.265-7.911Zm23.484 7.91V43.636l18.265-7.914v19.872l-18.265 7.91Z" fill="#1C2B59"/><path d="M45.758.757a1.5 1.5 0 0 0-2.121 0l-9.546 9.546a1.5 1.5 0 1 0 2.121 2.12l8.485-8.484 8.485 8.485a1.5 1.5 0 0 0 2.122-2.121L45.758.757Zm.44 19.483V1.817h-3V20.24h3ZM88.44 64.986a1.5 1.5 0 0 0 .564-2.045l-6.698-11.605a1.5 1.5 0 0 0-2.053-.534 1.5 1.5 0 0 0-.565 2.045l5.955 10.316-10.47 6.043a1.5 1.5 0 0 0-.564 2.045 1.5 1.5 0 0 0 2.053.534l11.778-6.799Zm-19.472-4.611 18.329 4.768.798-2.892-18.33-4.768-.797 2.892ZM.585 65.857c-.294.765.1 1.628.882 1.93l12.736 4.904c.782.3 1.654-.075 1.948-.84.295-.764-.1-1.628-.882-1.929l-11.32-4.36 4.264-11.074c.295-.765-.1-1.629-.882-1.93-.781-.3-1.653.075-1.948.84L.585 65.857Zm18.136-8.292L1.377 65.038l1.247 2.728 17.344-7.473-1.247-2.728Z" fill="#1C2B59"/></svg>