<svg xmlns="http://www.w3.org/2000/svg" width="25" height="24" fill="none"><g clip-path="url(#a)"><path fill="#fff" d="M12.142 0C5.532 0 .167 5.376.167 12S5.53 24 12.142 24c6.61 0 11.975-5.376 11.975-12S18.752 0 12.142 0m5.556 8.16c-.18 1.896-.958 6.504-1.353 8.628-.168.9-.503 1.2-.814 1.236-.695.06-1.222-.456-1.893-.9-1.053-.696-1.652-1.128-2.67-1.8-1.186-.78-.42-1.212.264-1.908.18-.18 3.245-2.976 3.305-3.228a.24.24 0 0 0-.06-.216c-.072-.06-.168-.036-.252-.024-.108.024-1.784 1.14-5.053 3.348-.48.324-.91.492-1.294.48-.43-.012-1.245-.24-1.856-.444-.754-.24-1.34-.372-1.293-.792.024-.216.323-.432.886-.66 3.497-1.524 5.82-2.532 6.982-3.012 3.329-1.392 4.011-1.632 4.466-1.632.096 0 .324.024.467.144.12.096.156.228.168.324-.012.072.012.288 0 .456"/></g><defs><clipPath id="a"><path fill="#fff" d="M.167 0h23.95v24H.167z"/></clipPath></defs></svg>