<svg width="74" height="74" fill="none" xmlns="http://www.w3.org/2000/svg"><g clip-path="url(#a)"><path fill-rule="evenodd" clip-rule="evenodd" d="M32.762 7.4c-1.434 0-2.854.287-4.18.845a10.912 10.912 0 0 0-3.542 2.406 11.116 11.116 0 0 0-2.368 3.601 11.259 11.259 0 0 0 0 8.496 11.116 11.116 0 0 0 2.368 3.6 10.913 10.913 0 0 0 3.543 2.407c1.325.558 2.745.845 4.179.845 2.896 0 5.674-1.17 7.722-3.251a11.193 11.193 0 0 0 3.198-7.849c0-2.944-1.15-5.767-3.198-7.849A10.832 10.832 0 0 0 32.762 7.4ZM14.56 18.5c0-4.906 1.917-9.612 5.33-13.081C23.306 1.949 27.936 0 32.762 0c4.828 0 9.457 1.95 12.87 5.419 3.414 3.469 5.332 8.175 5.332 13.081 0 4.907-1.918 9.612-5.331 13.081C42.218 35.051 37.589 37 32.762 37c-4.828 0-9.457-1.95-12.87-5.419-3.414-3.469-5.331-8.174-5.331-13.081ZM8.784 57.724C7.608 59.24 7.28 60.388 7.28 61.05c0 .451.135.929.929 1.576.906.74 2.482 1.506 4.892 2.154 4.798 1.295 11.692 1.82 19.66 1.82.809 0 1.606-.007 2.396-.018a3.61 3.61 0 0 1 2.588 1.048 3.73 3.73 0 0 1 1.101 2.602 3.733 3.733 0 0 1-1.031 2.63 3.613 3.613 0 0 1-2.56 1.12c-.822.01-1.656.018-2.493.018-8.114 0-15.78-.518-21.525-2.065-2.857-.77-5.547-1.872-7.586-3.537C1.492 66.637 0 64.177 0 61.05c0-2.912 1.303-5.635 3.072-7.914 1.799-2.313 4.285-4.44 7.2-6.253 5.836-3.611 13.772-6.183 22.49-6.183 1.627 0 3.229.089 4.79.259.96.103 1.84.59 2.448 1.354a3.743 3.743 0 0 1-.544 5.204 3.6 3.6 0 0 1-2.672.801 36.812 36.812 0 0 0-4.022-.218c-7.364 0-13.99 2.183-18.696 5.102-2.356 1.458-4.136 3.042-5.282 4.522Zm52.604-13.335a3.669 3.669 0 0 0-1.331-1.345 3.595 3.595 0 0 0-3.628 0 3.669 3.669 0 0 0-1.331 1.345l-3.313 5.78-6.428 1.413a3.619 3.619 0 0 0-1.671.871 3.706 3.706 0 0 0-1.022 1.602 3.758 3.758 0 0 0-.1 1.906c.132.634.424 1.221.849 1.703l4.383 4.988-.663 6.653a3.755 3.755 0 0 0 .299 1.884 3.69 3.69 0 0 0 1.183 1.482 3.587 3.587 0 0 0 3.607.393l6.021-2.701 6.021 2.7a3.587 3.587 0 0 0 3.607-.392 3.69 3.69 0 0 0 1.183-1.482c.26-.59.363-1.24.299-1.884l-.662-6.657 4.382-4.984c.425-.482.717-1.07.849-1.703a3.758 3.758 0 0 0-.1-1.906 3.706 3.706 0 0 0-1.022-1.602 3.62 3.62 0 0 0-1.67-.871l-6.43-1.414-3.312-5.78ZM57.271 55.3l.972-1.702.972 1.702c.255.444.597.83 1.007 1.132.41.302.876.514 1.37.622l1.893.414-1.292 1.47a3.715 3.715 0 0 0-.75 1.32 3.758 3.758 0 0 0-.16 1.517l.196 1.954-1.769-.792a3.59 3.59 0 0 0-2.934 0l-1.769.792.193-1.954a3.758 3.758 0 0 0-.161-1.516 3.715 3.715 0 0 0-.75-1.322l-1.284-1.469 1.893-.414a3.61 3.61 0 0 0 1.368-.623 3.68 3.68 0 0 0 1.005-1.13Z" fill="#1C2B59"/></g><defs><clipPath id="a"><path fill="#fff" d="M0 0h74v74H0z"/></clipPath></defs></svg>