<svg width="24" height="24" fill="none" xmlns="http://www.w3.org/2000/svg"><g clip-path="url(#a)"><path fill-rule="evenodd" clip-rule="evenodd" d="M18.103.618a30.268 30.268 0 0 0-12.174 0l-.432.088a6.43 6.43 0 0 0-2.991 1.488 5.663 5.663 0 0 0-1.702 2.71 21.057 21.057 0 0 0 0 11.226c.27.983.82 1.882 1.59 2.607a6.383 6.383 0 0 0 2.797 1.52l.593 3.254c.019.104.067.2.14.28.074.08.17.141.277.176a.69.69 0 0 0 .635-.116l3.48-2.864a30.252 30.252 0 0 0 7.787-.57l.433-.089a6.43 6.43 0 0 0 2.992-1.488 5.663 5.663 0 0 0 1.702-2.709 21.058 21.058 0 0 0 0-11.227 5.663 5.663 0 0 0-1.703-2.709A6.43 6.43 0 0 0 18.535.707l-.432-.089ZM7.004 4.808a1.124 1.124 0 0 0-.684.124h-.018a5.167 5.167 0 0 0-1.275.965c-.306.325-.471.653-.515.97-.025.187-.007.377.053.557l.023.011c.344.93.792 1.824 1.34 2.666a15.817 15.817 0 0 0 2.586 3.253l.03.04.05.033.028.032.036.028a17.287 17.287 0 0 0 3.545 2.391c1.471.738 2.364 1.086 2.9 1.231v.007c.157.045.3.065.444.065.457-.031.89-.202 1.228-.486a4.717 4.717 0 0 0 1.037-1.177v-.008c.256-.445.17-.865-.2-1.15a15.503 15.503 0 0 0-2.396-1.582c-.571-.285-1.15-.113-1.385.175l-.5.582c-.258.288-.724.248-.724.248l-.013.007c-3.48-.817-4.409-4.058-4.409-4.058s-.043-.44.28-.666l.626-.464c.301-.225.51-.758.188-1.283a13.93 13.93 0 0 0-1.717-2.204.971.971 0 0 0-.56-.308l.002.001ZM12.883 3.4a.666.666 0 0 0-.45.172.563.563 0 0 0-.187.414c0 .156.067.305.186.415.12.11.282.171.451.171 1.612 0 2.95.485 4.008 1.413a5.172 5.172 0 0 1 1.246 1.768c.28.66.407 1.364.373 2.07a.544.544 0 0 0 .039.226.578.578 0 0 0 .13.196.661.661 0 0 0 .442.189.671.671 0 0 0 .458-.154.569.569 0 0 0 .206-.408 5.833 5.833 0 0 0-.46-2.544 6.353 6.353 0 0 0-1.534-2.173l-.013-.012C16.464 3.988 14.802 3.4 12.883 3.4Zm-.043 1.927a.666.666 0 0 0-.45.172.563.563 0 0 0-.187.414c0 .156.067.305.186.415.12.11.282.172.45.172h.022c1.162.076 2.008.432 2.6 1.017.608.603.923 1.352.899 2.278a.561.561 0 0 0 .176.418.663.663 0 0 0 .446.182.669.669 0 0 0 .455-.162.566.566 0 0 0 .197-.411c.03-1.216-.395-2.265-1.238-3.102v-.002c-.863-.851-2.047-1.302-3.471-1.39l-.022-.002-.063.001Zm-.025 1.964a.69.69 0 0 0-.473.141.594.594 0 0 0-.155.186.549.549 0 0 0 .107.657.638.638 0 0 0 .207.136c.078.032.163.049.248.05.533.026.873.173 1.087.372.215.199.376.519.405 1.02.002.078.02.156.055.227a.59.59 0 0 0 .148.19.688.688 0 0 0 .714.098.633.633 0 0 0 .201-.142.576.576 0 0 0 .125-.204.542.542 0 0 0 .029-.232c-.041-.703-.28-1.324-.771-1.782-.493-.457-1.165-.68-1.927-.717Z" fill="#fff"/></g><defs><clipPath id="a"><path fill="#fff" transform="translate(.042)" d="M0 0h23.95v24H0z"/></clipPath></defs></svg>