<svg width="48" height="48" fill="none" xmlns="http://www.w3.org/2000/svg"><g clip-path="url(#a)"><path fill-rule="evenodd" clip-rule="evenodd" d="M36.198 1.237a60.786 60.786 0 0 0-24.398 0l-.866.176c-2.26.463-4.335 1.493-5.996 2.975-1.66 1.482-2.841 3.357-3.41 5.418a42.03 42.03 0 0 0 0 22.455c.543 1.965 1.642 3.764 3.187 5.213 1.544 1.45 3.478 2.498 5.606 3.04l1.188 6.508c.038.207.135.4.282.56.147.161.338.282.554.352.215.07.447.084.67.044.225-.041.432-.136.603-.276l6.973-5.728a60.759 60.759 0 0 0 15.607-1.141l.868-.176c2.26-.464 4.335-1.494 5.996-2.976 1.66-1.482 2.841-3.357 3.41-5.418a42.035 42.035 0 0 0 0-22.454c-.569-2.062-1.75-3.937-3.411-5.419-1.661-1.482-3.737-2.512-5.998-2.975l-.865-.178Zm-22.243 8.38a2.256 2.256 0 0 0-1.371.248h-.036a10.355 10.355 0 0 0-2.556 1.93c-.613.649-.945 1.305-1.032 1.938a2.46 2.46 0 0 0 .105 1.114l.046.024a26.84 26.84 0 0 0 2.686 5.331 31.647 31.647 0 0 0 5.184 6.507l.061.08.097.065.059.063.071.056a34.653 34.653 0 0 0 7.104 4.784c2.95 1.474 4.74 2.17 5.814 2.461v.014c.314.09.6.13.889.13a4.3 4.3 0 0 0 2.461-.971 9.445 9.445 0 0 0 2.079-2.354v-.017c.513-.89.34-1.73-.401-2.3a31.062 31.062 0 0 0-4.803-3.165c-1.144-.57-2.306-.225-2.776.352l-1.003 1.163c-.516.576-1.45.497-1.45.497l-.026.014c-6.974-1.634-8.835-8.117-8.835-8.117s-.087-.882.56-1.332l1.255-.929c.603-.45 1.022-1.514.376-2.564a27.865 27.865 0 0 0-3.44-4.408 1.948 1.948 0 0 0-1.123-.617l.005.002Zm11.781-2.819c-.338 0-.663.124-.902.343-.24.22-.374.519-.374.83 0 .31.134.609.374.828.24.22.564.344.902.344 3.23 0 5.912.968 8.034 2.825a10.346 10.346 0 0 1 2.497 3.536c.559 1.32.814 2.729.748 4.14-.007.154.019.308.077.453.057.144.145.277.259.39.23.23.548.366.887.379.339.013.669-.098.919-.309.249-.21.397-.503.411-.814a11.646 11.646 0 0 0-.921-5.088 12.708 12.708 0 0 0-3.075-4.347l-.025-.023c-2.633-2.31-5.965-3.487-9.81-3.487Zm-.086 3.855c-.339 0-.664.123-.903.343-.24.22-.374.518-.374.829 0 .31.134.61.374.829.24.22.564.343.903.343h.043c2.329.153 4.024.865 5.212 2.035 1.218 1.206 1.848 2.704 1.8 4.556-.008.31.119.612.353.837.234.225.556.355.894.362.339.007.666-.11.912-.324.244-.215.386-.51.394-.821.061-2.431-.791-4.53-2.482-6.204v-.005c-1.728-1.702-4.1-2.602-6.955-2.778l-.044-.005-.127.003ZM25.6 14.58a1.385 1.385 0 0 0-.506.053 1.311 1.311 0 0 0-.444.23 1.19 1.19 0 0 0-.31.37 1.098 1.098 0 0 0-.052.916c.06.148.15.284.267.399.117.115.258.207.415.271.157.064.326.098.497.1 1.068.052 1.75.348 2.178.744.432.399.754 1.039.812 2.04.004.157.041.312.111.456.07.144.17.273.296.38.126.107.273.19.434.244a1.38 1.38 0 0 0 .996-.049c.154-.069.291-.165.404-.284a1.15 1.15 0 0 0 .25-.407c.053-.15.073-.308.058-.464-.082-1.407-.562-2.65-1.545-3.564-.988-.915-2.334-1.36-3.86-1.435Z" fill="#fff"/></g><defs><clipPath id="a"><path fill="#fff" d="M0 0h48v48H0z"/></clipPath></defs></svg>