<svg xmlns="http://www.w3.org/2000/svg" width="24" height="24" fill="none"><g clip-path="url(#a)"><path fill="#fff" fill-rule="evenodd" d="M18.103.618a30.3 30.3 0 0 0-12.174 0l-.432.088a6.43 6.43 0 0 0-2.991 1.488 5.66 5.66 0 0 0-1.702 2.71 21.06 21.06 0 0 0 0 11.226c.27.983.82 1.882 1.59 2.607a6.4 6.4 0 0 0 2.797 1.52l.593 3.254c.019.104.067.2.14.28s.17.141.277.176a.69.69 0 0 0 .635-.116l3.48-2.864a30.3 30.3 0 0 0 7.787-.57l.433-.089a6.43 6.43 0 0 0 2.992-1.488 5.66 5.66 0 0 0 1.702-2.709 21.06 21.06 0 0 0 0-11.227 5.66 5.66 0 0 0-1.703-2.709A6.43 6.43 0 0 0 18.535.707zM7.004 4.808a1.12 1.12 0 0 0-.684.124h-.018a5.2 5.2 0 0 0-1.275.965c-.306.325-.471.653-.515.97a1.24 1.24 0 0 0 .053.557l.023.011c.344.93.792 1.824 1.34 2.666a15.8 15.8 0 0 0 2.586 3.253l.03.04.05.033.028.032.036.028a17.3 17.3 0 0 0 3.545 2.391c1.471.738 2.364 1.086 2.9 1.231v.007c.157.045.3.065.444.065.457-.031.89-.202 1.228-.486a4.7 4.7 0 0 0 1.037-1.177v-.008c.256-.445.17-.865-.2-1.15a15.5 15.5 0 0 0-2.396-1.582c-.571-.285-1.15-.113-1.385.175l-.5.582c-.258.288-.724.248-.724.248l-.013.007c-3.48-.817-4.409-4.058-4.409-4.058s-.043-.44.28-.666l.626-.464c.301-.225.51-.758.188-1.283a14 14 0 0 0-1.717-2.204.97.97 0 0 0-.56-.308zM12.883 3.4a.67.67 0 0 0-.45.172.56.56 0 0 0-.187.414c0 .156.067.305.186.415.12.11.282.171.451.171 1.612 0 2.95.485 4.008 1.413a5.2 5.2 0 0 1 1.246 1.768c.28.66.407 1.364.373 2.07a.54.54 0 0 0 .039.226.6.6 0 0 0 .13.196.66.66 0 0 0 .442.189.67.67 0 0 0 .458-.154.57.57 0 0 0 .206-.408 5.8 5.8 0 0 0-.46-2.544 6.35 6.35 0 0 0-1.534-2.173l-.013-.012C16.464 3.988 14.802 3.4 12.883 3.4m-.043 1.927a.67.67 0 0 0-.45.172.56.56 0 0 0-.187.414c0 .156.067.305.186.415.12.11.282.172.45.172h.022c1.162.076 2.008.432 2.6 1.017.608.603.923 1.352.899 2.278a.56.56 0 0 0 .176.418.66.66 0 0 0 .446.182.67.67 0 0 0 .455-.162.57.57 0 0 0 .197-.411c.03-1.216-.395-2.265-1.238-3.102v-.002c-.863-.851-2.047-1.302-3.471-1.39l-.022-.002zm-.025 1.964a.7.7 0 0 0-.473.141.6.6 0 0 0-.155.186.55.55 0 0 0 .107.657.6.6 0 0 0 .207.136.7.7 0 0 0 .248.05c.533.026.873.173 1.087.372.215.199.376.519.405 1.02q.003.119.055.227a.6.6 0 0 0 .148.19.69.69 0 0 0 .714.098.6.6 0 0 0 .201-.142.6.6 0 0 0 .125-.204.54.54 0 0 0 .029-.232c-.041-.703-.28-1.324-.771-1.782-.493-.457-1.165-.68-1.927-.717" clip-rule="evenodd"/></g><defs><clipPath id="a"><path fill="#fff" d="M.042 0h23.95v24H.042z"/></clipPath></defs></svg>