<svg xmlns="http://www.w3.org/2000/svg" width="24" height="24" fill="none"><path fill="#fff" fill-rule="evenodd" d="M17.345.618a27.9 27.9 0 0 0-11.69 0l-.416.088a6.1 6.1 0 0 0-2.873 1.488 5.7 5.7 0 0 0-1.634 2.71 21.9 21.9 0 0 0 0 11.226 5.7 5.7 0 0 0 1.527 2.607 6.06 6.06 0 0 0 2.687 1.52l.569 3.254c.018.104.064.2.135.28.07.08.162.141.265.176a.64.64 0 0 0 .61-.116l3.342-2.864a28 28 0 0 0 7.478-.57l.416-.089a6.1 6.1 0 0 0 2.873-1.488c.796-.74 1.093-1.31 1.366-2.34.976-3.684.756-7.97-.5-11.568-.5-1.432 0-.432-1-2.432-.796-.74-2.072-1.65-3.155-1.882M6.687 4.808a1.04 1.04 0 0 0-.657.124h-.017a5 5 0 0 0-1.225.965c-.294.325-.453.653-.495.97a1.3 1.3 0 0 0 .05.557l.023.011c.33.93.76 1.824 1.287 2.666a15.7 15.7 0 0 0 2.484 3.253l.029.04.046.033.029.032.034.028a16.6 16.6 0 0 0 3.404 2.391c1.413.738 2.27 1.086 2.786 1.231v.007c.15.045.287.065.425.065a2 2 0 0 0 1.18-.486c.398-.337.734-.735.996-1.177v-.008c.246-.445.163-.865-.192-1.15a15 15 0 0 0-2.302-1.582c-.548-.285-1.104-.113-1.33.175l-.48.582-.278-.035c-.88.223-4.21-3.297-4.21-3.297S7.78 9.29 8.09 9.066l.602-.464c.289-.225.49-.758.18-1.283a14 14 0 0 0-1.648-2.204.92.92 0 0 0-.539-.308l.003.001Z" clip-rule="evenodd"/></svg>