<svg width="24" height="24" fill="none" xmlns="http://www.w3.org/2000/svg"><path fill-rule="evenodd" clip-rule="evenodd" d="M17.345.618a27.938 27.938 0 0 0-11.69 0l-.416.088a6.085 6.085 0 0 0-2.873 1.488 5.7 5.7 0 0 0-1.634 2.71 21.896 21.896 0 0 0 0 11.226c.26.983.787 1.882 1.527 2.607a6.062 6.062 0 0 0 2.687 1.52l.569 3.254c.018.104.064.2.135.28.07.08.162.141.265.176a.637.637 0 0 0 .61-.116l3.342-2.864a27.928 27.928 0 0 0 7.478-.57l.416-.089a6.085 6.085 0 0 0 2.873-1.488c.796-.74 1.093-1.31 1.366-2.34.976-3.684.756-7.97-.5-11.568-.5-1.432 0-.432-1-2.432-.796-.74-2.072-1.65-3.155-1.882ZM6.687 4.808a1.043 1.043 0 0 0-.657.124h-.017a4.987 4.987 0 0 0-1.225.965c-.294.325-.453.653-.495.97a1.28 1.28 0 0 0 .05.557l.023.011c.33.93.76 1.824 1.287 2.666a15.73 15.73 0 0 0 2.484 3.253l.029.04.046.033.029.032.034.028a16.579 16.579 0 0 0 3.404 2.391c1.413.738 2.27 1.086 2.786 1.231v.007c.15.045.287.065.425.065a2.013 2.013 0 0 0 1.18-.486c.398-.337.734-.735.996-1.177v-.008c.246-.445.163-.865-.192-1.15a14.844 14.844 0 0 0-2.302-1.582c-.548-.285-1.104-.113-1.33.175l-.48.582-.278-.035c-.88.223-4.21-3.297-4.21-3.297S7.78 9.29 8.09 9.066l.602-.464c.289-.225.49-.758.18-1.283a13.87 13.87 0 0 0-1.648-2.204.923.923 0 0 0-.539-.308l.003.001Z" fill="#fff"/></svg>